{"header":{"formatType":0,"trackCount":1,"ticksPerBeat":96},"tracks":[[{"deltaTime":0,"type":"meta","subtype":"trackName","text":"25\u0000"},{"deltaTime":0,"type":"meta","subtype":"timeSignature","numerator":4,"denominator":4,"metronome":36,"thirtyseconds":8},{"deltaTime":0,"type":"meta","subtype":"timeSignature","numerator":4,"denominator":4,"metronome":36,"thirtyseconds":8},{"deltaTime":0,"channel":0,"type":"channel","subtype":"programChange","programNumber":0},{"deltaTime":0,"channel":0,"type":"channel","subtype":"controller","controllerType":7,"value":103},{"deltaTime":0,"channel":0,"type":"channel","subtype":"controller","controllerType":10,"value":64},{"deltaTime":0,"channel":0,"type":"channel","subtype":"controller","controllerType":100,"value":0},{"deltaTime":0,"channel":0,"type":"channel","subtype":"controller","controllerType":100,"value":0},{"deltaTime":0,"channel":0,"type":"channel","subtype":"controller","controllerType":101,"value":0},{"deltaTime":0,"channel":0,"type":"channel","subtype":"controller","controllerType":101,"value":0},{"deltaTime":0,"channel":0,"type":"channel","subtype":"controller","controllerType":6,"value":0},{"deltaTime":0,"channel":0,"type":"channel","subtype":"controller","controllerType":6,"value":12},{"deltaTime":0,"channel":0,"type":"channel","subtype":"controller","controllerType":38,"value":0},{"deltaTime":0,"channel":0,"type":"channel","subtype":"controller","controllerType":38,"value":0},{"deltaTime":0,"channel":0,"type":"channel","noteNumber":64,"velocity":69,"subtype":"noteOn"},{"deltaTime":44,"channel":0,"type":"channel","subtype":"noteOff","noteNumber":64,"velocity":0},{"deltaTime":7,"channel":0,"type":"channel","noteNumber":66,"velocity":64,"subtype":"noteOn"},{"deltaTime":41,"channel":0,"type":"channel","subtype":"noteOff","noteNumber":66,"velocity":0},{"deltaTime":6,"channel":0,"type":"channel","noteNumber":67,"velocity":65,"subtype":"noteOn"},{"deltaTime":41,"channel":0,"type":"channel","subtype":"noteOff","noteNumber":67,"velocity":0},{"deltaTime":7,"channel":0,"type":"channel","noteNumber":69,"velocity":64,"subtype":"noteOn"},{"deltaTime":136,"channel":0,"type":"channel","subtype":"noteOff","noteNumber":69,"velocity":0},{"deltaTime":6,"channel":0,"type":"channel","noteNumber":69,"velocity":69,"subtype":"noteOn"},{"deltaTime":139,"channel":0,"type":"channel","subtype":"noteOff","noteNumber":69,"velocity":0},{"deltaTime":7,"channel":0,"type":"channel","noteNumber":69,"velocity":64,"subtype":"noteOn"},{"deltaTime":136,"channel":0,"type":"channel","subtype":"noteOff","noteNumber":69,"velocity":0},{"deltaTime":6,"channel":0,"type":"channel","noteNumber":69,"velocity":69,"subtype":"noteOn"},{"deltaTime":139,"channel":0,"type":"channel","subtype":"noteOff","noteNumber":69,"velocity":0},{"deltaTime":7,"channel":0,"type":"channel","noteNumber":69,"velocity":64,"subtype":"noteOn"},{"deltaTime":136,"channel":0,"type":"channel","subtype":"noteOff","noteNumber":69,"velocity":0},{"deltaTime":6,"channel":0,"type":"channel","noteNumber":71,"velocity":69,"subtype":"noteOn"},{"deltaTime":139,"channel":0,"type":"channel","subtype":"noteOff","noteNumber":71,"velocity":0},{"deltaTime":0,"type":"meta","subtype":"endOfTrack"}]]}