{"header":{"formatType":0,"trackCount":1,"ticksPerBeat":96},"tracks":[[{"deltaTime":0,"type":"meta","subtype":"trackName","text":"29\u0000"},{"deltaTime":0,"type":"meta","subtype":"timeSignature","numerator":4,"denominator":4,"metronome":36,"thirtyseconds":8},{"deltaTime":0,"type":"meta","subtype":"timeSignature","numerator":4,"denominator":4,"metronome":36,"thirtyseconds":8},{"deltaTime":0,"channel":0,"type":"channel","subtype":"programChange","programNumber":0},{"deltaTime":0,"channel":0,"type":"channel","subtype":"controller","controllerType":7,"value":103},{"deltaTime":0,"channel":0,"type":"channel","subtype":"controller","controllerType":10,"value":64},{"deltaTime":0,"channel":0,"type":"channel","subtype":"controller","controllerType":100,"value":0},{"deltaTime":0,"channel":0,"type":"channel","subtype":"controller","controllerType":100,"value":0},{"deltaTime":0,"channel":0,"type":"channel","subtype":"controller","controllerType":101,"value":0},{"deltaTime":0,"channel":0,"type":"channel","subtype":"controller","controllerType":101,"value":0},{"deltaTime":0,"channel":0,"type":"channel","subtype":"controller","controllerType":6,"value":0},{"deltaTime":0,"channel":0,"type":"channel","subtype":"controller","controllerType":6,"value":12},{"deltaTime":0,"channel":0,"type":"channel","subtype":"controller","controllerType":38,"value":0},{"deltaTime":0,"channel":0,"type":"channel","subtype":"controller","controllerType":38,"value":0},{"deltaTime":0,"channel":0,"type":"channel","subtype":"controller","controllerType":7,"value":67},{"deltaTime":0,"channel":0,"type":"channel","noteNumber":64,"velocity":75,"subtype":"noteOn"},{"deltaTime":10,"channel":0,"type":"channel","subtype":"controller","controllerType":7,"value":70},{"deltaTime":2,"channel":0,"type":"channel","subtype":"controller","controllerType":7,"value":70},{"deltaTime":9,"channel":0,"type":"channel","subtype":"controller","controllerType":7,"value":73},{"deltaTime":3,"channel":0,"type":"channel","subtype":"controller","controllerType":7,"value":73},{"deltaTime":7,"channel":0,"type":"channel","subtype":"controller","controllerType":7,"value":76},{"deltaTime":5,"channel":0,"type":"channel","subtype":"controller","controllerType":7,"value":77},{"deltaTime":5,"channel":0,"type":"channel","subtype":"controller","controllerType":7,"value":79},{"deltaTime":7,"channel":0,"type":"channel","subtype":"controller","controllerType":7,"value":81},{"deltaTime":0,"channel":0,"type":"channel","subtype":"controller","controllerType":7,"value":82},{"deltaTime":10,"channel":0,"type":"channel","subtype":"controller","controllerType":7,"value":85},{"deltaTime":2,"channel":0,"type":"channel","subtype":"controller","controllerType":7,"value":85},{"deltaTime":8,"channel":0,"type":"channel","subtype":"controller","controllerType":7,"value":88},{"deltaTime":4,"channel":0,"type":"channel","subtype":"controller","controllerType":7,"value":89},{"deltaTime":6,"channel":0,"type":"channel","subtype":"controller","controllerType":7,"value":91},{"deltaTime":6,"channel":0,"type":"channel","subtype":"controller","controllerType":7,"value":92},{"deltaTime":4,"channel":0,"type":"channel","subtype":"controller","controllerType":7,"value":94},{"deltaTime":8,"channel":0,"type":"channel","subtype":"controller","controllerType":7,"value":96},{"deltaTime":2,"channel":0,"type":"channel","subtype":"controller","controllerType":7,"value":97},{"deltaTime":10,"channel":0,"type":"channel","subtype":"controller","controllerType":7,"value":99},{"deltaTime":0,"channel":0,"type":"channel","subtype":"controller","controllerType":7,"value":100},{"deltaTime":1,"channel":0,"type":"channel","subtype":"controller","controllerType":7,"value":101},{"deltaTime":10,"channel":0,"type":"channel","subtype":"controller","controllerType":7,"value":100},{"deltaTime":20,"channel":0,"type":"channel","subtype":"controller","controllerType":7,"value":100},{"deltaTime":0,"channel":0,"type":"channel","subtype":"controller","controllerType":7,"value":99},{"deltaTime":5,"channel":0,"type":"channel","subtype":"controller","controllerType":7,"value":98},{"deltaTime":4,"channel":0,"type":"channel","subtype":"controller","controllerType":7,"value":98},{"deltaTime":8,"channel":0,"type":"channel","subtype":"controller","controllerType":7,"value":97},{"deltaTime":2,"channel":0,"type":"channel","subtype":"controller","controllerType":7,"value":97},{"deltaTime":20,"channel":0,"type":"channel","subtype":"controller","controllerType":7,"value":97},{"deltaTime":0,"channel":0,"type":"channel","subtype":"controller","controllerType":7,"value":96},{"deltaTime":2,"channel":0,"type":"channel","subtype":"controller","controllerType":7,"value":95},{"deltaTime":7,"channel":0,"type":"channel","subtype":"controller","controllerType":7,"value":94},{"deltaTime":5,"channel":0,"type":"channel","subtype":"controller","controllerType":7,"value":93},{"deltaTime":5,"channel":0,"type":"channel","subtype":"controller","controllerType":7,"value":93},{"deltaTime":7,"channel":0,"type":"channel","subtype":"controller","controllerType":7,"value":92},{"deltaTime":3,"channel":0,"type":"channel","subtype":"controller","controllerType":7,"value":92},{"deltaTime":9,"channel":0,"type":"channel","subtype":"controller","controllerType":7,"value":90},{"deltaTime":1,"channel":0,"type":"channel","subtype":"controller","controllerType":7,"value":90},{"deltaTime":19,"channel":0,"type":"channel","subtype":"controller","controllerType":7,"value":90},{"deltaTime":0,"channel":0,"type":"channel","subtype":"controller","controllerType":7,"value":89},{"deltaTime":4,"channel":0,"type":"channel","subtype":"controller","controllerType":7,"value":88},{"deltaTime":6,"channel":0,"type":"channel","subtype":"controller","controllerType":7,"value":88},{"deltaTime":6,"channel":0,"type":"channel","subtype":"controller","controllerType":7,"value":87},{"deltaTime":4,"channel":0,"type":"channel","subtype":"controller","controllerType":7,"value":87},{"deltaTime":8,"channel":0,"type":"channel","subtype":"controller","controllerType":7,"value":86},{"deltaTime":1,"channel":0,"type":"channel","subtype":"controller","controllerType":7,"value":86},{"deltaTime":17,"channel":0,"type":"channel","subtype":"noteOff","noteNumber":64,"velocity":0},{"deltaTime":6,"channel":0,"type":"channel","noteNumber":67,"velocity":75,"subtype":"noteOn"},{"deltaTime":93,"channel":0,"type":"channel","subtype":"controller","controllerType":7,"value":86},{"deltaTime":0,"channel":0,"type":"channel","subtype":"controller","controllerType":7,"value":80},{"deltaTime":20,"channel":0,"type":"channel","subtype":"controller","controllerType":7,"value":80},{"deltaTime":0,"channel":0,"type":"channel","subtype":"controller","controllerType":7,"value":82},{"deltaTime":7,"channel":0,"type":"channel","subtype":"controller","controllerType":7,"value":83},{"deltaTime":3,"channel":0,"type":"channel","subtype":"controller","controllerType":7,"value":84},{"deltaTime":9,"channel":0,"type":"channel","subtype":"controller","controllerType":7,"value":85},{"deltaTime":0,"channel":0,"type":"channel","subtype":"controller","controllerType":7,"value":86},{"deltaTime":10,"channel":0,"type":"channel","subtype":"controller","controllerType":7,"value":90},{"deltaTime":2,"channel":0,"type":"channel","subtype":"controller","controllerType":7,"value":90},{"deltaTime":8,"channel":0,"type":"channel","subtype":"controller","controllerType":7,"value":92},{"deltaTime":4,"channel":0,"type":"channel","subtype":"controller","controllerType":7,"value":93},{"deltaTime":6,"channel":0,"type":"channel","subtype":"controller","controllerType":7,"value":96},{"deltaTime":6,"channel":0,"type":"channel","subtype":"controller","controllerType":7,"value":97},{"deltaTime":4,"channel":0,"type":"channel","subtype":"controller","controllerType":7,"value":98},{"deltaTime":8,"channel":0,"type":"channel","subtype":"controller","controllerType":7,"value":99},{"deltaTime":2,"channel":0,"type":"channel","subtype":"controller","controllerType":7,"value":100},{"deltaTime":10,"channel":0,"type":"channel","subtype":"controller","controllerType":7,"value":102},{"deltaTime":10,"channel":0,"type":"channel","subtype":"controller","controllerType":7,"value":103},{"deltaTime":2,"channel":0,"type":"channel","subtype":"controller","controllerType":7,"value":102},{"deltaTime":8,"channel":0,"type":"channel","subtype":"controller","controllerType":7,"value":100},{"deltaTime":4,"channel":0,"type":"channel","subtype":"controller","controllerType":7,"value":99},{"deltaTime":6,"channel":0,"type":"channel","subtype":"controller","controllerType":7,"value":97},{"deltaTime":6,"channel":0,"type":"channel","subtype":"controller","controllerType":7,"value":95},{"deltaTime":4,"channel":0,"type":"channel","subtype":"controller","controllerType":7,"value":95},{"deltaTime":8,"channel":0,"type":"channel","subtype":"controller","controllerType":7,"value":92},{"deltaTime":2,"channel":0,"type":"channel","subtype":"controller","controllerType":7,"value":92},{"deltaTime":10,"channel":0,"type":"channel","subtype":"controller","controllerType":7,"value":90},{"deltaTime":0,"channel":0,"type":"channel","subtype":"controller","controllerType":7,"value":90},{"deltaTime":10,"channel":0,"type":"channel","subtype":"controller","controllerType":7,"value":88},{"deltaTime":2,"channel":0,"type":"channel","subtype":"controller","controllerType":7,"value":87},{"deltaTime":7,"channel":0,"type":"channel","subtype":"controller","controllerType":7,"value":85},{"deltaTime":5,"channel":0,"type":"channel","subtype":"controller","controllerType":7,"value":84},{"deltaTime":5,"channel":0,"type":"channel","subtype":"controller","controllerType":7,"value":83},{"deltaTime":1,"channel":0,"type":"channel","subtype":"noteOff","noteNumber":67,"velocity":0},{"deltaTime":6,"channel":0,"type":"channel","subtype":"controller","controllerType":7,"value":81},{"deltaTime":0,"channel":0,"type":"channel","noteNumber":72,"velocity":75,"subtype":"noteOn"},{"deltaTime":3,"channel":0,"type":"channel","subtype":"controller","controllerType":7,"value":81},{"deltaTime":9,"channel":0,"type":"channel","subtype":"controller","controllerType":7,"value":78},{"deltaTime":1,"channel":0,"type":"channel","subtype":"controller","controllerType":7,"value":78},{"deltaTime":10,"channel":0,"type":"channel","subtype":"controller","controllerType":7,"value":76},{"deltaTime":1,"channel":0,"type":"channel","subtype":"controller","controllerType":7,"value":75},{"deltaTime":9,"channel":0,"type":"channel","subtype":"controller","controllerType":7,"value":73},{"deltaTime":3,"channel":0,"type":"channel","subtype":"controller","controllerType":7,"value":72},{"deltaTime":6,"channel":0,"type":"channel","subtype":"controller","controllerType":7,"value":71},{"deltaTime":6,"channel":0,"type":"channel","subtype":"controller","controllerType":7,"value":69},{"deltaTime":4,"channel":0,"type":"channel","subtype":"controller","controllerType":7,"value":69},{"deltaTime":8,"channel":0,"type":"channel","subtype":"controller","controllerType":7,"value":66},{"deltaTime":2,"channel":0,"type":"channel","subtype":"controller","controllerType":7,"value":66},{"deltaTime":10,"channel":0,"type":"channel","subtype":"controller","controllerType":7,"value":64},{"deltaTime":0,"channel":0,"type":"channel","subtype":"controller","controllerType":7,"value":64},{"deltaTime":10,"channel":0,"type":"channel","subtype":"controller","controllerType":7,"value":61},{"deltaTime":2,"channel":0,"type":"channel","subtype":"controller","controllerType":7,"value":60},{"deltaTime":8,"channel":0,"type":"channel","subtype":"controller","controllerType":7,"value":59},{"deltaTime":25,"channel":0,"type":"channel","subtype":"controller","controllerType":7,"value":59},{"deltaTime":0,"channel":0,"type":"channel","subtype":"controller","controllerType":7,"value":103},{"deltaTime":72,"channel":0,"type":"channel","subtype":"controller","controllerType":7,"value":103},{"deltaTime":0,"channel":0,"type":"channel","subtype":"controller","controllerType":7,"value":67},{"deltaTime":3,"channel":0,"type":"channel","subtype":"controller","controllerType":7,"value":67},{"deltaTime":7,"channel":0,"type":"channel","subtype":"controller","controllerType":7,"value":71},{"deltaTime":5,"channel":0,"type":"channel","subtype":"controller","controllerType":7,"value":72},{"deltaTime":6,"channel":0,"type":"channel","subtype":"controller","controllerType":7,"value":74},{"deltaTime":6,"channel":0,"type":"channel","subtype":"controller","controllerType":7,"value":75},{"deltaTime":4,"channel":0,"type":"channel","subtype":"controller","controllerType":7,"value":77},{"deltaTime":8,"channel":0,"type":"channel","subtype":"controller","controllerType":7,"value":80},{"deltaTime":2,"channel":0,"type":"channel","subtype":"controller","controllerType":7,"value":81},{"deltaTime":10,"channel":0,"type":"channel","subtype":"controller","controllerType":7,"value":83},{"deltaTime":0,"channel":0,"type":"channel","subtype":"controller","controllerType":7,"value":84},{"deltaTime":10,"channel":0,"type":"channel","subtype":"controller","controllerType":7,"value":88},{"deltaTime":2,"channel":0,"type":"channel","subtype":"controller","controllerType":7,"value":88},{"deltaTime":9,"channel":0,"type":"channel","subtype":"controller","controllerType":7,"value":91},{"deltaTime":3,"channel":0,"type":"channel","subtype":"controller","controllerType":7,"value":92},{"deltaTime":7,"channel":0,"type":"channel","subtype":"controller","controllerType":7,"value":95},{"deltaTime":5,"channel":0,"type":"channel","subtype":"controller","controllerType":7,"value":96},{"deltaTime":5,"channel":0,"type":"channel","subtype":"controller","controllerType":7,"value":98},{"deltaTime":1,"channel":0,"type":"channel","subtype":"noteOff","noteNumber":72,"velocity":0},{"deltaTime":6,"channel":0,"type":"channel","subtype":"controller","controllerType":7,"value":101},{"deltaTime":3,"channel":0,"type":"channel","subtype":"controller","controllerType":7,"value":103},{"deltaTime":9,"channel":0,"type":"channel","subtype":"controller","controllerType":7,"value":100},{"deltaTime":2,"channel":0,"type":"channel","subtype":"controller","controllerType":7,"value":100},{"deltaTime":10,"channel":0,"type":"channel","subtype":"controller","controllerType":7,"value":97},{"deltaTime":0,"channel":0,"type":"channel","subtype":"controller","controllerType":7,"value":97},{"deltaTime":10,"channel":0,"type":"channel","subtype":"controller","controllerType":7,"value":96},{"deltaTime":2,"channel":0,"type":"channel","subtype":"controller","controllerType":7,"value":95},{"deltaTime":7,"channel":0,"type":"channel","subtype":"controller","controllerType":7,"value":93},{"deltaTime":5,"channel":0,"type":"channel","subtype":"controller","controllerType":7,"value":91},{"deltaTime":5,"channel":0,"type":"channel","subtype":"controller","controllerType":7,"value":90},{"deltaTime":7,"channel":0,"type":"channel","subtype":"controller","controllerType":7,"value":89},{"deltaTime":3,"channel":0,"type":"channel","subtype":"controller","controllerType":7,"value":89},{"deltaTime":9,"channel":0,"type":"channel","subtype":"controller","controllerType":7,"value":86},{"deltaTime":0,"channel":0,"type":"channel","subtype":"controller","controllerType":7,"value":86},{"deltaTime":10,"channel":0,"type":"channel","subtype":"controller","controllerType":7,"value":84},{"deltaTime":2,"channel":0,"type":"channel","subtype":"controller","controllerType":7,"value":83},{"deltaTime":8,"channel":0,"type":"channel","subtype":"controller","controllerType":7,"value":82},{"deltaTime":4,"channel":0,"type":"channel","subtype":"controller","controllerType":7,"value":80},{"deltaTime":5,"channel":0,"type":"channel","subtype":"controller","controllerType":7,"value":79},{"deltaTime":7,"channel":0,"type":"channel","subtype":"controller","controllerType":7,"value":77},{"deltaTime":3,"channel":0,"type":"channel","subtype":"controller","controllerType":7,"value":77},{"deltaTime":9,"channel":0,"type":"channel","subtype":"controller","controllerType":7,"value":75},{"deltaTime":1,"channel":0,"type":"channel","subtype":"controller","controllerType":7,"value":75},{"deltaTime":9,"channel":0,"type":"channel","subtype":"controller","controllerType":7,"value":72},{"deltaTime":2,"channel":0,"type":"channel","subtype":"controller","controllerType":7,"value":71},{"deltaTime":8,"channel":0,"type":"channel","subtype":"controller","controllerType":7,"value":71},{"deltaTime":4,"channel":0,"type":"channel","subtype":"controller","controllerType":7,"value":69},{"deltaTime":6,"channel":0,"type":"channel","subtype":"controller","controllerType":7,"value":68},{"deltaTime":6,"channel":0,"type":"channel","subtype":"controller","controllerType":7,"value":66},{"deltaTime":3,"channel":0,"type":"channel","subtype":"controller","controllerType":7,"value":65},{"deltaTime":9,"channel":0,"type":"channel","subtype":"controller","controllerType":7,"value":64},{"deltaTime":1,"channel":0,"type":"channel","subtype":"controller","controllerType":7,"value":64},{"deltaTime":10,"channel":0,"type":"channel","subtype":"controller","controllerType":7,"value":61},{"deltaTime":1,"channel":0,"type":"channel","subtype":"controller","controllerType":7,"value":60},{"deltaTime":8,"channel":0,"type":"channel","subtype":"controller","controllerType":7,"value":58},{"deltaTime":25,"channel":0,"type":"channel","subtype":"controller","controllerType":7,"value":58},{"deltaTime":0,"channel":0,"type":"channel","subtype":"controller","controllerType":7,"value":103},{"deltaTime":0,"type":"meta","subtype":"endOfTrack"}]]}