{"header":{"formatType":0,"trackCount":1,"ticksPerBeat":96},"tracks":[[{"deltaTime":0,"type":"meta","subtype":"trackName","text":"32\u0000"},{"deltaTime":0,"type":"meta","subtype":"timeSignature","numerator":4,"denominator":4,"metronome":36,"thirtyseconds":8},{"deltaTime":0,"type":"meta","subtype":"timeSignature","numerator":4,"denominator":4,"metronome":36,"thirtyseconds":8},{"deltaTime":0,"channel":0,"type":"channel","subtype":"programChange","programNumber":0},{"deltaTime":0,"channel":0,"type":"channel","subtype":"controller","controllerType":7,"value":103},{"deltaTime":0,"channel":0,"type":"channel","subtype":"controller","controllerType":10,"value":64},{"deltaTime":0,"channel":0,"type":"channel","subtype":"controller","controllerType":100,"value":0},{"deltaTime":0,"channel":0,"type":"channel","subtype":"controller","controllerType":100,"value":0},{"deltaTime":0,"channel":0,"type":"channel","subtype":"controller","controllerType":101,"value":0},{"deltaTime":0,"channel":0,"type":"channel","subtype":"controller","controllerType":101,"value":0},{"deltaTime":0,"channel":0,"type":"channel","subtype":"controller","controllerType":6,"value":0},{"deltaTime":0,"channel":0,"type":"channel","subtype":"controller","controllerType":6,"value":12},{"deltaTime":0,"channel":0,"type":"channel","subtype":"controller","controllerType":38,"value":0},{"deltaTime":0,"channel":0,"type":"channel","subtype":"controller","controllerType":38,"value":0},{"deltaTime":0,"channel":0,"type":"channel","subtype":"controller","controllerType":7,"value":86},{"deltaTime":0,"channel":0,"type":"channel","noteNumber":65,"velocity":80,"subtype":"noteOn"},{"deltaTime":22,"channel":0,"type":"channel","subtype":"noteOff","noteNumber":65,"velocity":0},{"deltaTime":5,"channel":0,"type":"channel","noteNumber":67,"velocity":75,"subtype":"noteOn"},{"deltaTime":18,"channel":0,"type":"channel","subtype":"noteOff","noteNumber":67,"velocity":0},{"deltaTime":6,"channel":0,"type":"channel","noteNumber":65,"velocity":75,"subtype":"noteOn"},{"deltaTime":18,"channel":0,"type":"channel","subtype":"noteOff","noteNumber":65,"velocity":0},{"deltaTime":5,"channel":0,"type":"channel","noteNumber":67,"velocity":75,"subtype":"noteOn"},{"deltaTime":19,"channel":0,"type":"channel","subtype":"noteOff","noteNumber":67,"velocity":0},{"deltaTime":5,"channel":0,"type":"channel","noteNumber":71,"velocity":76,"subtype":"noteOn"},{"deltaTime":19,"channel":0,"type":"channel","subtype":"noteOff","noteNumber":71,"velocity":0},{"deltaTime":6,"channel":0,"type":"channel","noteNumber":65,"velocity":75,"subtype":"noteOn"},{"deltaTime":16,"channel":0,"type":"channel","subtype":"controller","controllerType":7,"value":86},{"deltaTime":0,"channel":0,"type":"channel","subtype":"controller","controllerType":7,"value":87},{"deltaTime":5,"channel":0,"type":"channel","subtype":"controller","controllerType":7,"value":87},{"deltaTime":5,"channel":0,"type":"channel","subtype":"controller","controllerType":7,"value":89},{"deltaTime":7,"channel":0,"type":"channel","subtype":"controller","controllerType":7,"value":89},{"deltaTime":3,"channel":0,"type":"channel","subtype":"controller","controllerType":7,"value":90},{"deltaTime":9,"channel":0,"type":"channel","subtype":"controller","controllerType":7,"value":92},{"deltaTime":0,"channel":0,"type":"channel","subtype":"controller","controllerType":7,"value":93},{"deltaTime":10,"channel":0,"type":"channel","subtype":"controller","controllerType":7,"value":95},{"deltaTime":2,"channel":0,"type":"channel","subtype":"controller","controllerType":7,"value":95},{"deltaTime":8,"channel":0,"type":"channel","subtype":"controller","controllerType":7,"value":97},{"deltaTime":4,"channel":0,"type":"channel","subtype":"controller","controllerType":7,"value":97},{"deltaTime":6,"channel":0,"type":"channel","subtype":"controller","controllerType":7,"value":99},{"deltaTime":6,"channel":0,"type":"channel","subtype":"controller","controllerType":7,"value":100},{"deltaTime":3,"channel":0,"type":"channel","subtype":"controller","controllerType":7,"value":101},{"deltaTime":9,"channel":0,"type":"channel","subtype":"controller","controllerType":7,"value":101},{"deltaTime":1,"channel":0,"type":"channel","subtype":"controller","controllerType":7,"value":102},{"deltaTime":11,"channel":0,"type":"channel","subtype":"controller","controllerType":7,"value":102},{"deltaTime":0,"channel":0,"type":"channel","subtype":"controller","controllerType":7,"value":103},{"deltaTime":10,"channel":0,"type":"channel","subtype":"controller","controllerType":7,"value":102},{"deltaTime":19,"channel":0,"type":"channel","subtype":"controller","controllerType":7,"value":102},{"deltaTime":0,"channel":0,"type":"channel","subtype":"controller","controllerType":7,"value":101},{"deltaTime":19,"channel":0,"type":"channel","subtype":"controller","controllerType":7,"value":101},{"deltaTime":0,"channel":0,"type":"channel","subtype":"controller","controllerType":7,"value":100},{"deltaTime":10,"channel":0,"type":"channel","subtype":"controller","controllerType":7,"value":99},{"deltaTime":2,"channel":0,"type":"channel","subtype":"controller","controllerType":7,"value":98},{"deltaTime":8,"channel":0,"type":"channel","subtype":"controller","controllerType":7,"value":98},{"deltaTime":4,"channel":0,"type":"channel","subtype":"controller","controllerType":7,"value":97},{"deltaTime":5,"channel":0,"type":"channel","subtype":"controller","controllerType":7,"value":97},{"deltaTime":7,"channel":0,"type":"channel","subtype":"controller","controllerType":7,"value":96},{"deltaTime":3,"channel":0,"type":"channel","subtype":"controller","controllerType":7,"value":96},{"deltaTime":9,"channel":0,"type":"channel","subtype":"controller","controllerType":7,"value":95},{"deltaTime":1,"channel":0,"type":"channel","subtype":"controller","controllerType":7,"value":95},{"deltaTime":9,"channel":0,"type":"channel","subtype":"controller","controllerType":7,"value":93},{"deltaTime":2,"channel":0,"type":"channel","subtype":"controller","controllerType":7,"value":92},{"deltaTime":8,"channel":0,"type":"channel","subtype":"controller","controllerType":7,"value":92},{"deltaTime":4,"channel":0,"type":"channel","subtype":"controller","controllerType":7,"value":91},{"deltaTime":6,"channel":0,"type":"channel","subtype":"controller","controllerType":7,"value":91},{"deltaTime":6,"channel":0,"type":"channel","subtype":"controller","controllerType":7,"value":90},{"deltaTime":3,"channel":0,"type":"channel","subtype":"controller","controllerType":7,"value":90},{"deltaTime":9,"channel":0,"type":"channel","subtype":"controller","controllerType":7,"value":89},{"deltaTime":1,"channel":0,"type":"channel","subtype":"controller","controllerType":7,"value":89},{"deltaTime":10,"channel":0,"type":"channel","subtype":"controller","controllerType":7,"value":88},{"deltaTime":1,"channel":0,"type":"channel","subtype":"controller","controllerType":7,"value":87},{"deltaTime":8,"channel":0,"type":"channel","subtype":"controller","controllerType":7,"value":87},{"deltaTime":20,"channel":0,"type":"channel","subtype":"controller","controllerType":7,"value":87},{"deltaTime":0,"channel":0,"type":"channel","subtype":"controller","controllerType":7,"value":86},{"deltaTime":16,"channel":0,"type":"channel","subtype":"noteOff","noteNumber":65,"velocity":0},{"deltaTime":7,"channel":0,"type":"channel","noteNumber":67,"velocity":75,"subtype":"noteOn"},{"deltaTime":136,"channel":0,"type":"channel","subtype":"noteOff","noteNumber":67,"velocity":0},{"deltaTime":26,"channel":0,"type":"channel","subtype":"controller","controllerType":7,"value":86},{"deltaTime":0,"channel":0,"type":"channel","subtype":"controller","controllerType":7,"value":103},{"deltaTime":0,"type":"meta","subtype":"endOfTrack"}]]}