{"header":{"formatType":0,"trackCount":1,"ticksPerBeat":96},"tracks":[[{"deltaTime":0,"type":"meta","subtype":"trackName","text":"35\u0000"},{"deltaTime":0,"type":"meta","subtype":"timeSignature","numerator":4,"denominator":4,"metronome":36,"thirtyseconds":8},{"deltaTime":0,"type":"meta","subtype":"timeSignature","numerator":4,"denominator":4,"metronome":36,"thirtyseconds":8},{"deltaTime":0,"channel":0,"type":"channel","subtype":"programChange","programNumber":0},{"deltaTime":0,"channel":0,"type":"channel","subtype":"controller","controllerType":7,"value":103},{"deltaTime":0,"channel":0,"type":"channel","subtype":"controller","controllerType":10,"value":64},{"deltaTime":0,"channel":0,"type":"channel","subtype":"controller","controllerType":100,"value":0},{"deltaTime":0,"channel":0,"type":"channel","subtype":"controller","controllerType":100,"value":0},{"deltaTime":0,"channel":0,"type":"channel","subtype":"controller","controllerType":101,"value":0},{"deltaTime":0,"channel":0,"type":"channel","subtype":"controller","controllerType":101,"value":0},{"deltaTime":0,"channel":0,"type":"channel","subtype":"controller","controllerType":6,"value":0},{"deltaTime":0,"channel":0,"type":"channel","subtype":"controller","controllerType":6,"value":12},{"deltaTime":0,"channel":0,"type":"channel","subtype":"controller","controllerType":38,"value":0},{"deltaTime":0,"channel":0,"type":"channel","subtype":"controller","controllerType":38,"value":0},{"deltaTime":0,"channel":0,"type":"channel","noteNumber":65,"velocity":69,"subtype":"noteOn"},{"deltaTime":22,"channel":0,"type":"channel","subtype":"noteOff","noteNumber":65,"velocity":0},{"deltaTime":5,"channel":0,"type":"channel","noteNumber":67,"velocity":64,"subtype":"noteOn"},{"deltaTime":18,"channel":0,"type":"channel","subtype":"noteOff","noteNumber":67,"velocity":0},{"deltaTime":6,"channel":0,"type":"channel","noteNumber":71,"velocity":64,"subtype":"noteOn"},{"deltaTime":18,"channel":0,"type":"channel","subtype":"noteOff","noteNumber":71,"velocity":0},{"deltaTime":5,"channel":0,"type":"channel","noteNumber":67,"velocity":64,"subtype":"noteOn"},{"deltaTime":19,"channel":0,"type":"channel","subtype":"noteOff","noteNumber":67,"velocity":0},{"deltaTime":5,"channel":0,"type":"channel","noteNumber":71,"velocity":65,"subtype":"noteOn"},{"deltaTime":19,"channel":0,"type":"channel","subtype":"noteOff","noteNumber":71,"velocity":0},{"deltaTime":6,"channel":0,"type":"channel","noteNumber":67,"velocity":64,"subtype":"noteOn"},{"deltaTime":17,"channel":0,"type":"channel","subtype":"noteOff","noteNumber":67,"velocity":0},{"deltaTime":6,"channel":0,"type":"channel","noteNumber":71,"velocity":64,"subtype":"noteOn"},{"deltaTime":18,"channel":0,"type":"channel","subtype":"noteOff","noteNumber":71,"velocity":0},{"deltaTime":5,"channel":0,"type":"channel","noteNumber":67,"velocity":64,"subtype":"noteOn"},{"deltaTime":19,"channel":0,"type":"channel","subtype":"noteOff","noteNumber":67,"velocity":0},{"deltaTime":5,"channel":0,"type":"channel","noteNumber":71,"velocity":67,"subtype":"noteOn"},{"deltaTime":20,"channel":0,"type":"channel","subtype":"noteOff","noteNumber":71,"velocity":0},{"deltaTime":5,"channel":0,"type":"channel","noteNumber":67,"velocity":64,"subtype":"noteOn"},{"deltaTime":18,"channel":0,"type":"channel","subtype":"noteOff","noteNumber":67,"velocity":0},{"deltaTime":337,"channel":0,"type":"channel","subtype":"controller","controllerType":7,"value":103},{"deltaTime":0,"channel":0,"type":"channel","subtype":"controller","controllerType":7,"value":84},{"deltaTime":4,"channel":0,"type":"channel","noteNumber":70,"velocity":79,"subtype":"noteOn"},{"deltaTime":89,"channel":0,"type":"channel","subtype":"noteOff","noteNumber":70,"velocity":0},{"deltaTime":7,"channel":0,"type":"channel","noteNumber":79,"velocity":77,"subtype":"noteOn"},{"deltaTime":16,"channel":0,"type":"channel","subtype":"controller","controllerType":7,"value":84},{"deltaTime":0,"channel":0,"type":"channel","subtype":"controller","controllerType":7,"value":85},{"deltaTime":7,"channel":0,"type":"channel","subtype":"controller","controllerType":7,"value":86},{"deltaTime":3,"channel":0,"type":"channel","subtype":"controller","controllerType":7,"value":87},{"deltaTime":9,"channel":0,"type":"channel","subtype":"controller","controllerType":7,"value":89},{"deltaTime":1,"channel":0,"type":"channel","subtype":"controller","controllerType":7,"value":90},{"deltaTime":10,"channel":0,"type":"channel","subtype":"controller","controllerType":7,"value":91},{"deltaTime":1,"channel":0,"type":"channel","subtype":"controller","controllerType":7,"value":91},{"deltaTime":8,"channel":0,"type":"channel","subtype":"controller","controllerType":7,"value":94},{"deltaTime":4,"channel":0,"type":"channel","subtype":"controller","controllerType":7,"value":94},{"deltaTime":6,"channel":0,"type":"channel","subtype":"controller","controllerType":7,"value":97},{"deltaTime":6,"channel":0,"type":"channel","subtype":"controller","controllerType":7,"value":97},{"deltaTime":4,"channel":0,"type":"channel","subtype":"controller","controllerType":7,"value":98},{"deltaTime":8,"channel":0,"type":"channel","subtype":"controller","controllerType":7,"value":99},{"deltaTime":2,"channel":0,"type":"channel","subtype":"controller","controllerType":7,"value":100},{"deltaTime":9,"channel":0,"type":"channel","subtype":"controller","controllerType":7,"value":101},{"deltaTime":1,"channel":0,"type":"channel","subtype":"controller","controllerType":7,"value":101},{"deltaTime":10,"channel":0,"type":"channel","subtype":"controller","controllerType":7,"value":102},{"deltaTime":2,"channel":0,"type":"channel","subtype":"controller","controllerType":7,"value":101},{"deltaTime":8,"channel":0,"type":"channel","subtype":"controller","controllerType":7,"value":101},{"deltaTime":20,"channel":0,"type":"channel","subtype":"controller","controllerType":7,"value":101},{"deltaTime":0,"channel":0,"type":"channel","subtype":"controller","controllerType":7,"value":100},{"deltaTime":8,"channel":0,"type":"channel","subtype":"controller","controllerType":7,"value":99},{"deltaTime":2,"channel":0,"type":"channel","subtype":"controller","controllerType":7,"value":99},{"deltaTime":10,"channel":0,"type":"channel","subtype":"controller","controllerType":7,"value":98},{"deltaTime":0,"channel":0,"type":"channel","subtype":"controller","controllerType":7,"value":98},{"deltaTime":10,"channel":0,"type":"channel","subtype":"controller","controllerType":7,"value":97},{"deltaTime":2,"channel":0,"type":"channel","subtype":"controller","controllerType":7,"value":96},{"deltaTime":8,"channel":0,"type":"channel","subtype":"controller","controllerType":7,"value":96},{"deltaTime":4,"channel":0,"type":"channel","subtype":"controller","controllerType":7,"value":95},{"deltaTime":6,"channel":0,"type":"channel","subtype":"controller","controllerType":7,"value":94},{"deltaTime":6,"channel":0,"type":"channel","subtype":"controller","controllerType":7,"value":92},{"deltaTime":4,"channel":0,"type":"channel","subtype":"controller","controllerType":7,"value":92},{"deltaTime":8,"channel":0,"type":"channel","subtype":"controller","controllerType":7,"value":91},{"deltaTime":1,"channel":0,"type":"channel","subtype":"controller","controllerType":7,"value":91},{"deltaTime":10,"channel":0,"type":"channel","subtype":"controller","controllerType":7,"value":90},{"deltaTime":1,"channel":0,"type":"channel","subtype":"controller","controllerType":7,"value":89},{"deltaTime":9,"channel":0,"type":"channel","subtype":"controller","controllerType":7,"value":89},{"deltaTime":3,"channel":0,"type":"channel","subtype":"controller","controllerType":7,"value":88},{"deltaTime":7,"channel":0,"type":"channel","subtype":"controller","controllerType":7,"value":87},{"deltaTime":5,"channel":0,"type":"channel","subtype":"controller","controllerType":7,"value":86},{"deltaTime":5,"channel":0,"type":"channel","subtype":"controller","controllerType":7,"value":86},{"deltaTime":7,"channel":0,"type":"channel","subtype":"controller","controllerType":7,"value":85},{"deltaTime":3,"channel":0,"type":"channel","subtype":"controller","controllerType":7,"value":85},{"deltaTime":9,"channel":0,"type":"channel","subtype":"controller","controllerType":7,"value":84},{"deltaTime":1,"channel":0,"type":"channel","subtype":"controller","controllerType":7,"value":84},{"deltaTime":18,"channel":0,"type":"channel","subtype":"noteOff","noteNumber":79,"velocity":0},{"deltaTime":6,"channel":0,"type":"channel","noteNumber":81,"velocity":79,"subtype":"noteOn"},{"deltaTime":42,"channel":0,"type":"channel","subtype":"noteOff","noteNumber":81,"velocity":0},{"deltaTime":6,"channel":0,"type":"channel","noteNumber":79,"velocity":76,"subtype":"noteOn"},{"deltaTime":89,"channel":0,"type":"channel","subtype":"noteOff","noteNumber":79,"velocity":0},{"deltaTime":6,"channel":0,"type":"channel","noteNumber":83,"velocity":76,"subtype":"noteOn"},{"deltaTime":41,"channel":0,"type":"channel","subtype":"noteOff","noteNumber":83,"velocity":0},{"deltaTime":7,"channel":0,"type":"channel","noteNumber":81,"velocity":81,"subtype":"noteOn"},{"deltaTime":139,"channel":0,"type":"channel","subtype":"noteOff","noteNumber":81,"velocity":0},{"deltaTime":7,"channel":0,"type":"channel","noteNumber":79,"velocity":76,"subtype":"noteOn"},{"deltaTime":41,"channel":0,"type":"channel","subtype":"noteOff","noteNumber":79,"velocity":0},{"deltaTime":6,"channel":0,"type":"channel","noteNumber":76,"velocity":79,"subtype":"noteOn"},{"deltaTime":17,"channel":0,"type":"channel","subtype":"controller","controllerType":7,"value":84},{"deltaTime":0,"channel":0,"type":"channel","subtype":"controller","controllerType":7,"value":85},{"deltaTime":6,"channel":0,"type":"channel","subtype":"controller","controllerType":7,"value":86},{"deltaTime":4,"channel":0,"type":"channel","subtype":"controller","controllerType":7,"value":87},{"deltaTime":8,"channel":0,"type":"channel","subtype":"controller","controllerType":7,"value":88},{"deltaTime":1,"channel":0,"type":"channel","subtype":"controller","controllerType":7,"value":89},{"deltaTime":10,"channel":0,"type":"channel","subtype":"controller","controllerType":7,"value":90},{"deltaTime":1,"channel":0,"type":"channel","subtype":"controller","controllerType":7,"value":90},{"deltaTime":9,"channel":0,"type":"channel","subtype":"controller","controllerType":7,"value":93},{"deltaTime":3,"channel":0,"type":"channel","subtype":"controller","controllerType":7,"value":93},{"deltaTime":6,"channel":0,"type":"channel","subtype":"controller","controllerType":7,"value":96},{"deltaTime":6,"channel":0,"type":"channel","subtype":"controller","controllerType":7,"value":96},{"deltaTime":4,"channel":0,"type":"channel","subtype":"controller","controllerType":7,"value":97},{"deltaTime":8,"channel":0,"type":"channel","subtype":"controller","controllerType":7,"value":98},{"deltaTime":2,"channel":0,"type":"channel","subtype":"controller","controllerType":7,"value":99},{"deltaTime":9,"channel":0,"type":"channel","subtype":"controller","controllerType":7,"value":101},{"deltaTime":1,"channel":0,"type":"channel","subtype":"controller","controllerType":7,"value":101},{"deltaTime":9,"channel":0,"type":"channel","subtype":"controller","controllerType":7,"value":102},{"deltaTime":3,"channel":0,"type":"channel","subtype":"controller","controllerType":7,"value":102},{"deltaTime":7,"channel":0,"type":"channel","subtype":"controller","controllerType":7,"value":103},{"deltaTime":5,"channel":0,"type":"channel","subtype":"controller","controllerType":7,"value":102},{"deltaTime":6,"channel":0,"type":"channel","subtype":"controller","controllerType":7,"value":102},{"deltaTime":20,"channel":0,"type":"channel","subtype":"controller","controllerType":7,"value":102},{"deltaTime":0,"channel":0,"type":"channel","subtype":"controller","controllerType":7,"value":101},{"deltaTime":10,"channel":0,"type":"channel","subtype":"controller","controllerType":7,"value":100},{"deltaTime":0,"channel":0,"type":"channel","subtype":"controller","controllerType":7,"value":100},{"deltaTime":10,"channel":0,"type":"channel","subtype":"controller","controllerType":7,"value":98},{"deltaTime":2,"channel":0,"type":"channel","subtype":"controller","controllerType":7,"value":97},{"deltaTime":8,"channel":0,"type":"channel","subtype":"controller","controllerType":7,"value":97},{"deltaTime":4,"channel":0,"type":"channel","subtype":"controller","controllerType":7,"value":96},{"deltaTime":6,"channel":0,"type":"channel","subtype":"controller","controllerType":7,"value":96},{"deltaTime":6,"channel":0,"type":"channel","subtype":"controller","controllerType":7,"value":94},{"deltaTime":4,"channel":0,"type":"channel","subtype":"controller","controllerType":7,"value":94},{"deltaTime":8,"channel":0,"type":"channel","subtype":"controller","controllerType":7,"value":92},{"deltaTime":2,"channel":0,"type":"channel","subtype":"controller","controllerType":7,"value":92},{"deltaTime":10,"channel":0,"type":"channel","subtype":"controller","controllerType":7,"value":90},{"deltaTime":0,"channel":0,"type":"channel","subtype":"controller","controllerType":7,"value":90},{"deltaTime":10,"channel":0,"type":"channel","subtype":"controller","controllerType":7,"value":89},{"deltaTime":2,"channel":0,"type":"channel","subtype":"controller","controllerType":7,"value":88},{"deltaTime":8,"channel":0,"type":"channel","subtype":"controller","controllerType":7,"value":88},{"deltaTime":4,"channel":0,"type":"channel","subtype":"controller","controllerType":7,"value":87},{"deltaTime":6,"channel":0,"type":"channel","subtype":"controller","controllerType":7,"value":86},{"deltaTime":6,"channel":0,"type":"channel","subtype":"controller","controllerType":7,"value":85},{"deltaTime":4,"channel":0,"type":"channel","subtype":"controller","controllerType":7,"value":85},{"deltaTime":8,"channel":0,"type":"channel","subtype":"controller","controllerType":7,"value":84},{"deltaTime":3,"channel":0,"type":"channel","subtype":"controller","controllerType":7,"value":84},{"deltaTime":17,"channel":0,"type":"channel","subtype":"noteOff","noteNumber":76,"velocity":0},{"deltaTime":6,"channel":0,"type":"channel","noteNumber":79,"velocity":77,"subtype":"noteOn"},{"deltaTime":41,"channel":0,"type":"channel","subtype":"noteOff","noteNumber":79,"velocity":0},{"deltaTime":7,"channel":0,"type":"channel","noteNumber":78,"velocity":76,"subtype":"noteOn"},{"deltaTime":17,"channel":0,"type":"channel","subtype":"controller","controllerType":7,"value":84},{"deltaTime":0,"channel":0,"type":"channel","subtype":"controller","controllerType":7,"value":85},{"deltaTime":5,"channel":0,"type":"channel","subtype":"controller","controllerType":7,"value":85},{"deltaTime":5,"channel":0,"type":"channel","subtype":"controller","controllerType":7,"value":87},{"deltaTime":7,"channel":0,"type":"channel","subtype":"controller","controllerType":7,"value":88},{"deltaTime":3,"channel":0,"type":"channel","subtype":"controller","controllerType":7,"value":89},{"deltaTime":9,"channel":0,"type":"channel","subtype":"controller","controllerType":7,"value":89},{"deltaTime":1,"channel":0,"type":"channel","subtype":"controller","controllerType":7,"value":90},{"deltaTime":11,"channel":0,"type":"channel","subtype":"controller","controllerType":7,"value":92},{"deltaTime":0,"channel":0,"type":"channel","subtype":"controller","controllerType":7,"value":93},{"deltaTime":10,"channel":0,"type":"channel","subtype":"controller","controllerType":7,"value":96},{"deltaTime":2,"channel":0,"type":"channel","subtype":"controller","controllerType":7,"value":96},{"deltaTime":8,"channel":0,"type":"channel","subtype":"controller","controllerType":7,"value":97},{"deltaTime":4,"channel":0,"type":"channel","subtype":"controller","controllerType":7,"value":97},{"deltaTime":6,"channel":0,"type":"channel","subtype":"controller","controllerType":7,"value":99},{"deltaTime":6,"channel":0,"type":"channel","subtype":"controller","controllerType":7,"value":100},{"deltaTime":4,"channel":0,"type":"channel","subtype":"controller","controllerType":7,"value":101},{"deltaTime":8,"channel":0,"type":"channel","subtype":"controller","controllerType":7,"value":101},{"deltaTime":2,"channel":0,"type":"channel","subtype":"controller","controllerType":7,"value":102},{"deltaTime":10,"channel":0,"type":"channel","subtype":"controller","controllerType":7,"value":102},{"deltaTime":2,"channel":0,"type":"channel","subtype":"controller","controllerType":7,"value":103},{"deltaTime":10,"channel":0,"type":"channel","subtype":"controller","controllerType":7,"value":100},{"deltaTime":9,"channel":0,"type":"channel","subtype":"controller","controllerType":7,"value":98},{"deltaTime":3,"channel":0,"type":"channel","subtype":"controller","controllerType":7,"value":97},{"deltaTime":7,"channel":0,"type":"channel","subtype":"controller","controllerType":7,"value":97},{"deltaTime":5,"channel":0,"type":"channel","subtype":"controller","controllerType":7,"value":95},{"deltaTime":4,"channel":0,"type":"channel","subtype":"controller","controllerType":7,"value":94},{"deltaTime":8,"channel":0,"type":"channel","subtype":"controller","controllerType":7,"value":92},{"deltaTime":2,"channel":0,"type":"channel","subtype":"controller","controllerType":7,"value":92},{"deltaTime":10,"channel":0,"type":"channel","subtype":"controller","controllerType":7,"value":90},{"deltaTime":0,"channel":0,"type":"channel","subtype":"controller","controllerType":7,"value":90},{"deltaTime":9,"channel":0,"type":"channel","subtype":"controller","controllerType":7,"value":89},{"deltaTime":3,"channel":0,"type":"channel","subtype":"controller","controllerType":7,"value":88},{"deltaTime":7,"channel":0,"type":"channel","subtype":"controller","controllerType":7,"value":86},{"deltaTime":5,"channel":0,"type":"channel","subtype":"controller","controllerType":7,"value":85},{"deltaTime":5,"channel":0,"type":"channel","subtype":"controller","controllerType":7,"value":84},{"deltaTime":7,"channel":0,"type":"channel","subtype":"controller","controllerType":7,"value":83},{"deltaTime":2,"channel":0,"type":"channel","subtype":"controller","controllerType":7,"value":83},{"deltaTime":10,"channel":0,"type":"channel","subtype":"controller","controllerType":7,"value":80},{"deltaTime":0,"channel":0,"type":"channel","subtype":"controller","controllerType":7,"value":80},{"deltaTime":10,"channel":0,"type":"channel","subtype":"controller","controllerType":7,"value":78},{"deltaTime":2,"channel":0,"type":"channel","subtype":"controller","controllerType":7,"value":77},{"deltaTime":7,"channel":0,"type":"channel","subtype":"controller","controllerType":7,"value":77},{"deltaTime":5,"channel":0,"type":"channel","subtype":"controller","controllerType":7,"value":76},{"deltaTime":5,"channel":0,"type":"channel","subtype":"controller","controllerType":7,"value":75},{"deltaTime":7,"channel":0,"type":"channel","subtype":"controller","controllerType":7,"value":72},{"deltaTime":3,"channel":0,"type":"channel","subtype":"controller","controllerType":7,"value":72},{"deltaTime":9,"channel":0,"type":"channel","subtype":"controller","controllerType":7,"value":71},{"deltaTime":0,"channel":0,"type":"channel","subtype":"controller","controllerType":7,"value":71},{"deltaTime":10,"channel":0,"type":"channel","subtype":"controller","controllerType":7,"value":69},{"deltaTime":2,"channel":0,"type":"channel","subtype":"controller","controllerType":7,"value":68},{"deltaTime":8,"channel":0,"type":"channel","subtype":"controller","controllerType":7,"value":67},{"deltaTime":4,"channel":0,"type":"channel","subtype":"controller","controllerType":7,"value":65},{"deltaTime":5,"channel":0,"type":"channel","subtype":"controller","controllerType":7,"value":64},{"deltaTime":7,"channel":0,"type":"channel","subtype":"controller","controllerType":7,"value":63},{"deltaTime":3,"channel":0,"type":"channel","subtype":"controller","controllerType":7,"value":63},{"deltaTime":9,"channel":0,"type":"channel","subtype":"controller","controllerType":7,"value":61},{"deltaTime":1,"channel":0,"type":"channel","subtype":"controller","controllerType":7,"value":61},{"deltaTime":7,"channel":0,"type":"channel","subtype":"noteOff","noteNumber":78,"velocity":0},{"deltaTime":2,"channel":0,"type":"channel","subtype":"controller","controllerType":7,"value":58},{"deltaTime":23,"channel":0,"type":"channel","subtype":"controller","controllerType":7,"value":58},{"deltaTime":0,"channel":0,"type":"channel","subtype":"controller","controllerType":7,"value":103},{"deltaTime":216,"channel":0,"type":"channel","subtype":"controller","controllerType":7,"value":103},{"deltaTime":0,"channel":0,"type":"channel","subtype":"controller","controllerType":7,"value":82},{"deltaTime":3,"channel":0,"type":"channel","noteNumber":76,"velocity":78,"subtype":"noteOn"},{"deltaTime":235,"channel":0,"type":"channel","subtype":"noteOff","noteNumber":76,"velocity":0},{"deltaTime":6,"channel":0,"type":"channel","noteNumber":77,"velocity":81,"subtype":"noteOn"},{"deltaTime":28,"channel":0,"type":"channel","subtype":"controller","controllerType":7,"value":82},{"deltaTime":0,"channel":0,"type":"channel","subtype":"controller","controllerType":7,"value":83},{"deltaTime":7,"channel":0,"type":"channel","subtype":"controller","controllerType":7,"value":83},{"deltaTime":3,"channel":0,"type":"channel","subtype":"controller","controllerType":7,"value":84},{"deltaTime":20,"channel":0,"type":"channel","subtype":"controller","controllerType":7,"value":84},{"deltaTime":0,"channel":0,"type":"channel","subtype":"controller","controllerType":7,"value":85},{"deltaTime":1,"channel":0,"type":"channel","subtype":"controller","controllerType":7,"value":85},{"deltaTime":9,"channel":0,"type":"channel","subtype":"controller","controllerType":7,"value":87},{"deltaTime":3,"channel":0,"type":"channel","subtype":"controller","controllerType":7,"value":87},{"deltaTime":7,"channel":0,"type":"channel","subtype":"controller","controllerType":7,"value":88},{"deltaTime":5,"channel":0,"type":"channel","subtype":"controller","controllerType":7,"value":88},{"deltaTime":5,"channel":0,"type":"channel","subtype":"controller","controllerType":7,"value":90},{"deltaTime":7,"channel":0,"type":"channel","subtype":"controller","controllerType":7,"value":90},{"deltaTime":3,"channel":0,"type":"channel","subtype":"controller","controllerType":7,"value":91},{"deltaTime":9,"channel":0,"type":"channel","subtype":"controller","controllerType":7,"value":91},{"deltaTime":1,"channel":0,"type":"channel","subtype":"controller","controllerType":7,"value":92},{"deltaTime":10,"channel":0,"type":"channel","subtype":"controller","controllerType":7,"value":94},{"deltaTime":1,"channel":0,"type":"channel","subtype":"controller","controllerType":7,"value":94},{"deltaTime":9,"channel":0,"type":"channel","subtype":"controller","controllerType":7,"value":96},{"deltaTime":3,"channel":0,"type":"channel","subtype":"controller","controllerType":7,"value":96},{"deltaTime":7,"channel":0,"type":"channel","subtype":"controller","controllerType":7,"value":97},{"deltaTime":5,"channel":0,"type":"channel","subtype":"controller","controllerType":7,"value":97},{"deltaTime":5,"channel":0,"type":"channel","subtype":"controller","controllerType":7,"value":98},{"deltaTime":7,"channel":0,"type":"channel","subtype":"controller","controllerType":7,"value":98},{"deltaTime":3,"channel":0,"type":"channel","subtype":"controller","controllerType":7,"value":99},{"deltaTime":9,"channel":0,"type":"channel","subtype":"controller","controllerType":7,"value":99},{"deltaTime":1,"channel":0,"type":"channel","subtype":"controller","controllerType":7,"value":100},{"deltaTime":10,"channel":0,"type":"channel","subtype":"controller","controllerType":7,"value":101},{"deltaTime":1,"channel":0,"type":"channel","subtype":"controller","controllerType":7,"value":101},{"deltaTime":9,"channel":0,"type":"channel","subtype":"controller","controllerType":7,"value":102},{"deltaTime":21,"channel":0,"type":"channel","subtype":"controller","controllerType":7,"value":102},{"deltaTime":0,"channel":0,"type":"channel","subtype":"controller","controllerType":7,"value":103},{"deltaTime":6,"channel":0,"type":"channel","subtype":"controller","controllerType":7,"value":101},{"deltaTime":4,"channel":0,"type":"channel","subtype":"controller","controllerType":7,"value":101},{"deltaTime":8,"channel":0,"type":"channel","subtype":"controller","controllerType":7,"value":100},{"deltaTime":2,"channel":0,"type":"channel","subtype":"controller","controllerType":7,"value":100},{"deltaTime":9,"channel":0,"type":"channel","subtype":"controller","controllerType":7,"value":98},{"deltaTime":1,"channel":0,"type":"channel","subtype":"controller","controllerType":7,"value":97},{"deltaTime":9,"channel":0,"type":"channel","subtype":"controller","controllerType":7,"value":97},{"deltaTime":20,"channel":0,"type":"channel","subtype":"controller","controllerType":7,"value":97},{"deltaTime":0,"channel":0,"type":"channel","subtype":"controller","controllerType":7,"value":95},{"deltaTime":7,"channel":0,"type":"channel","subtype":"controller","controllerType":7,"value":94},{"deltaTime":2,"channel":0,"type":"channel","subtype":"controller","controllerType":7,"value":94},{"deltaTime":10,"channel":0,"type":"channel","subtype":"controller","controllerType":7,"value":93},{"deltaTime":0,"channel":0,"type":"channel","subtype":"controller","controllerType":7,"value":93},{"deltaTime":10,"channel":0,"type":"channel","subtype":"controller","controllerType":7,"value":91},{"deltaTime":2,"channel":0,"type":"channel","subtype":"controller","controllerType":7,"value":90},{"deltaTime":8,"channel":0,"type":"channel","subtype":"controller","controllerType":7,"value":90},{"deltaTime":19,"channel":0,"type":"channel","subtype":"controller","controllerType":7,"value":90},{"deltaTime":0,"channel":0,"type":"channel","subtype":"controller","controllerType":7,"value":88},{"deltaTime":9,"channel":0,"type":"channel","subtype":"controller","controllerType":7,"value":87},{"deltaTime":1,"channel":0,"type":"channel","subtype":"controller","controllerType":7,"value":87},{"deltaTime":10,"channel":0,"type":"channel","subtype":"controller","controllerType":7,"value":86},{"deltaTime":1,"channel":0,"type":"channel","subtype":"controller","controllerType":7,"value":85},{"deltaTime":8,"channel":0,"type":"channel","subtype":"controller","controllerType":7,"value":84},{"deltaTime":20,"channel":0,"type":"channel","subtype":"controller","controllerType":7,"value":84},{"deltaTime":0,"channel":0,"type":"channel","subtype":"controller","controllerType":7,"value":83},{"deltaTime":8,"channel":0,"type":"channel","subtype":"controller","controllerType":7,"value":81},{"deltaTime":2,"channel":0,"type":"channel","subtype":"controller","controllerType":7,"value":81},{"deltaTime":9,"channel":0,"type":"channel","subtype":"controller","controllerType":7,"value":80},{"deltaTime":1,"channel":0,"type":"channel","subtype":"controller","controllerType":7,"value":79},{"deltaTime":9,"channel":0,"type":"channel","subtype":"controller","controllerType":7,"value":78},{"deltaTime":3,"channel":0,"type":"channel","subtype":"controller","controllerType":7,"value":77},{"deltaTime":7,"channel":0,"type":"channel","subtype":"controller","controllerType":7,"value":77},{"deltaTime":19,"channel":0,"type":"channel","subtype":"controller","controllerType":7,"value":77},{"deltaTime":0,"channel":0,"type":"channel","subtype":"controller","controllerType":7,"value":75},{"deltaTime":10,"channel":0,"type":"channel","subtype":"controller","controllerType":7,"value":74},{"deltaTime":0,"channel":0,"type":"channel","subtype":"controller","controllerType":7,"value":74},{"deltaTime":10,"channel":0,"type":"channel","subtype":"controller","controllerType":7,"value":73},{"deltaTime":2,"channel":0,"type":"channel","subtype":"controller","controllerType":7,"value":72},{"deltaTime":8,"channel":0,"type":"channel","subtype":"controller","controllerType":7,"value":71},{"deltaTime":19,"channel":0,"type":"channel","subtype":"controller","controllerType":7,"value":71},{"deltaTime":0,"channel":0,"type":"channel","subtype":"controller","controllerType":7,"value":70},{"deltaTime":9,"channel":0,"type":"channel","subtype":"controller","controllerType":7,"value":68},{"deltaTime":1,"channel":0,"type":"channel","subtype":"controller","controllerType":7,"value":68},{"deltaTime":10,"channel":0,"type":"channel","subtype":"controller","controllerType":7,"value":67},{"deltaTime":1,"channel":0,"type":"channel","subtype":"controller","controllerType":7,"value":66},{"deltaTime":8,"channel":0,"type":"channel","subtype":"controller","controllerType":7,"value":66},{"deltaTime":4,"channel":0,"type":"channel","subtype":"controller","controllerType":7,"value":65},{"deltaTime":6,"channel":0,"type":"channel","subtype":"controller","controllerType":7,"value":64},{"deltaTime":20,"channel":0,"type":"channel","subtype":"controller","controllerType":7,"value":64},{"deltaTime":0,"channel":0,"type":"channel","subtype":"controller","controllerType":7,"value":63},{"deltaTime":9,"channel":0,"type":"channel","subtype":"controller","controllerType":7,"value":61},{"deltaTime":1,"channel":0,"type":"channel","subtype":"controller","controllerType":7,"value":60},{"deltaTime":9,"channel":0,"type":"channel","subtype":"controller","controllerType":7,"value":60},{"deltaTime":3,"channel":0,"type":"channel","subtype":"controller","controllerType":7,"value":59},{"deltaTime":5,"channel":0,"type":"channel","subtype":"noteOff","noteNumber":77,"velocity":0},{"deltaTime":2,"channel":0,"type":"channel","subtype":"controller","controllerType":7,"value":59},{"deltaTime":26,"channel":0,"type":"channel","subtype":"controller","controllerType":7,"value":59},{"deltaTime":0,"channel":0,"type":"channel","subtype":"controller","controllerType":7,"value":103},{"deltaTime":0,"type":"meta","subtype":"endOfTrack"}]]}